# xmcd
#
# Track frame offsets: 
#        150
#        22185
#        49842
#        64195
#        81577
#        101375
#        120550
#        146275
#        163215
#        182685
#
# Disc length: 2707 seconds
#
# Revision: 2
# Processed by: cddbd v1.4PL0 Copyright (c) Steve Scherf et al.
# Submitted via: ExactAudioCopy v0.95a3
#
DISCID=890a910a
DTITLE=Jerry Jeff Walker - The Best Of Jerry Jeff Walker
DYEAR=1980
DGENRE=Country
TTITLE0=L.A. Freeway
TTITLE1=Mr. Bojangles
TTITLE2=Pot Can't Call The Kettle Black
TTITLE3=I Love You
TTITLE4=Leavin' Texas
TTITLE5=Gettin' By
TTITLE6=Desperados Waiting For The Train
TTITLE7=Sangria Wine
TTITLE8=Up Against The Wall, Redneck
TTITLE9=Hill Country Rain
EXTD=
EXTT0=
EXTT1=
EXTT2=
EXTT3=
EXTT4=
EXTT5=
EXTT6=
EXTT7=
EXTT8=
EXTT9=
PLAYORDER=
